<svg width="192" height="192" viewBox="0 0 192 192" fill="none" xmlns="http://www.w3.org/2000/svg"><g clip-path="url(#clip0_2_85)"><path d="M162.65 57.96C157.45 36.19 137.86 20 114.5 20H63.5C36.16 20 14 42.16 14 69.5C14 83.66 19.95 96.44 29.49 105.46L162.65 57.96Z" fill="#86A9FF"/><path d="M29.49 105.46C31.63 113.94 36.03 121.78 42.32 128.07L93.27 179.02C93.9 179.65 94.75 180 95.65 180C97.5 180 99.01 178.5 99.01 176.64V143H128.51C156.13 143 178.47 120.38 178 92.65C177.77 78.98 171.9 66.74 162.65 57.95L29.49 105.46Z" fill="#578CFF"/><path d="M114.5 119C141.84 119 164 96.84 164 69.5C164 65.53 163.53 61.66 162.65 57.96C153.54 49.3 141.16 44 127.69 44H77.5C50.16 44 28 66.16 28 93.5C28 97.57 28.51 101.58 29.49 105.46C38.36 113.85 50.33 119 63.5 119H114.5Z" fill="#0057CC"/></g><defs><clipPath id="clip0_2_85"><rect width="192" height="192" fill="white"/></clipPath></defs></svg>